<svg width="512" height="512" viewBox="0 0 512 512" fill="none" xmlns="http://www.w3.org/2000/svg">
<path fill-rule="evenodd" clip-rule="evenodd" d="M256 416.527C344.463 416.527 416.527 344.463 416.527 256C416.527 167.646 344.463 95.4729 256 95.4729C167.646 95.4729 95.4729 167.646 95.4729 256C95.4729 344.463 167.646 416.527 256 416.527Z" fill="#8AC9FE"/>
<path fill-rule="evenodd" clip-rule="evenodd" d="M244.77 416.137C328.014 410.34 394.053 340.684 394.053 256C394.053 171.42 328.014 101.669 244.77 95.8635C248.481 95.6044 252.225 95.4729 256 95.4729C344.463 95.4729 416.527 167.646 416.527 256C416.527 344.463 344.463 416.527 256 416.527C252.225 416.527 248.481 416.396 244.77 416.137Z" fill="#2596BE"/>
<path fill-rule="evenodd" clip-rule="evenodd" d="M167.879 273.243C160.862 266.227 157.389 242.243 164.405 235.227C171.422 228.21 186.148 227.544 193.165 234.56L233.46 270.173L319.437 194.246C326.787 187.579 338.166 188.133 344.833 195.482C351.5 202.831 350.946 214.211 343.596 220.877L252.247 320.752C245.145 327.195 218.674 324.04 211.894 317.259L167.879 273.243Z" fill="#ECEFF1"/>
<path fill-rule="evenodd" clip-rule="evenodd" d="M256.024 424.553C163.185 424.553 87.4466 348.863 87.4466 256.024C87.4466 163.186 163.186 87.4466 256.024 87.4466C348.863 87.4466 424.553 163.185 424.553 256.024C424.553 348.864 348.864 424.553 256.024 424.553ZM256.024 408.491C340.014 408.491 408.491 340.014 408.491 256.024C408.491 172.033 340.015 103.509 256.024 103.509C172.032 103.509 103.509 172.032 103.509 256.024C103.509 340.015 172.033 408.491 256.024 408.491ZM234.921 258.766L307.263 185.667L307.278 185.653C319.645 173.223 339.828 173.161 352.259 185.528C364.686 197.89 364.761 218.004 352.399 230.493L352.395 230.497C320.727 262.452 289.299 294.599 257.488 326.41C245.062 338.836 224.885 338.836 212.46 326.41L159.727 273.629C147.304 261.207 147.29 241.101 159.712 228.615L159.727 228.6C172.152 216.174 192.329 216.174 204.755 228.6L234.921 258.766ZM229.271 275.832L193.397 239.958C187.242 233.803 177.25 233.801 171.092 239.951C164.938 246.145 164.926 256.111 171.085 262.27L223.818 315.052C229.975 321.209 239.972 321.209 246.13 315.052C277.923 283.258 309.333 251.131 340.982 219.194C347.107 213.005 347.087 203.04 340.93 196.915C334.779 190.795 324.792 190.828 318.67 196.977L240.658 275.802C239.914 276.554 239.028 277.152 238.052 277.561C237.076 277.969 236.029 278.181 234.971 278.184C233.912 278.187 232.864 277.981 231.886 277.577C230.908 277.173 230.019 276.581 229.271 275.832ZM459.919 290.018C460.643 285.645 464.783 282.684 469.156 283.409C473.529 284.134 476.49 288.273 475.764 292.646C460.241 386.262 386.262 460.241 292.646 475.764C288.273 476.49 284.134 473.529 283.409 469.156C282.684 464.783 285.645 460.643 290.018 459.919C376.876 445.515 445.515 376.876 459.919 290.018ZM221.982 459.919C226.355 460.643 229.316 464.783 228.591 469.156C227.866 473.529 223.727 476.49 219.354 475.764C125.738 460.241 51.7592 386.262 36.2355 292.646C35.5097 288.273 38.4713 284.134 42.8443 283.409C47.2174 282.684 51.3566 285.645 52.0814 290.018C66.4847 376.876 135.124 445.515 221.982 459.919ZM52.0814 221.982C51.3566 226.355 47.2174 229.316 42.8443 228.591C38.4713 227.866 35.5097 223.727 36.2355 219.354C51.7592 125.738 125.738 51.7592 219.354 36.2355C223.727 35.5097 227.866 38.4713 228.591 42.8443C229.316 47.2174 226.355 51.3566 221.982 52.0814C135.124 66.4847 66.4847 135.124 52.0814 221.982ZM290.018 52.0814C285.645 51.3566 282.684 47.2174 283.409 42.8443C284.134 38.4713 288.273 35.5097 292.646 36.2355C386.262 51.7592 460.241 125.738 475.764 219.354C476.49 223.727 473.529 227.866 469.156 228.591C464.783 229.316 460.643 226.355 459.919 221.982C445.515 135.124 376.876 66.4847 290.018 52.0814ZM264.031 67.4615C264.031 71.8938 260.432 75.4929 256 75.4929C251.568 75.4929 247.969 71.8938 247.969 67.4615V15.0588C247.969 10.6265 251.568 7.02744 256 7.02744C260.432 7.02744 264.031 10.6265 264.031 15.0588V67.4615ZM444.538 264.031C440.106 264.031 436.507 260.432 436.507 256C436.507 251.568 440.106 247.969 444.538 247.969H496.941C501.374 247.969 504.973 251.568 504.973 256C504.973 260.432 501.374 264.031 496.941 264.031H444.538ZM247.969 444.538C247.969 440.106 251.568 436.507 256 436.507C260.432 436.507 264.031 440.106 264.031 444.538V496.941C264.031 501.374 260.432 504.973 256 504.973C251.568 504.973 247.969 501.374 247.969 496.941V444.538ZM67.4615 247.969C71.8938 247.969 75.4929 251.568 75.4929 256C75.4929 260.432 71.8938 264.031 67.4615 264.031H15.0588C10.6265 264.031 7.02744 260.432 7.02744 256C7.02744 251.568 10.6265 247.969 15.0588 247.969H67.4615Z" fill="#2596BE"/>
</svg>
