<svg width="109" height="108" viewBox="0 0 109 108" fill="none" xmlns="http://www.w3.org/2000/svg">
<g clip-path="url(#clip0_3_2)">
<path d="M83.6039 37.8H58.7157L81.7873 1.79993H52.7207L25.4707 55.7999H46.9073L25.4707 106.2L83.6039 37.8Z" fill="#FFDD09"/>
<path d="M59.9873 1.79993H52.7207L25.4707 55.7999H32.7373L59.9873 1.79993Z" fill="white"/>
<path d="M74.5207 37.8L30.9207 89.1L23.6541 106.2L81.7873 37.8H74.5207Z" fill="#FD9808"/>
<path d="M25.4707 108C25.1073 108 24.7441 108 24.5623 107.82C23.8357 107.28 23.4723 106.38 23.8357 105.66L44.1823 57.6001H25.4707C24.9257 57.6001 24.1991 57.24 23.8357 56.7C23.4723 56.16 23.4723 55.4401 23.8357 54.9001L51.0857 0.90007C51.4491 0.36007 51.9941 0 52.7207 0H81.7873C82.5138 0 83.0589 0.36007 83.4223 0.90007C83.7857 1.44007 83.7857 2.16 83.4223 2.7L62.1673 36.0001H83.6039C84.3304 36.0001 84.8754 36.3601 85.2389 37.0801C85.6023 37.8 85.4204 38.5201 85.0573 39.0601L26.9239 107.46C26.5607 107.82 26.0157 108 25.4707 108ZM28.3773 54H46.9073C47.4523 54 47.9973 54.3601 48.3607 54.7199C48.7241 55.2599 48.7241 55.7999 48.5423 56.3399L31.8289 95.9399L79.7889 39.5999H58.7155C57.9889 39.5999 57.4439 39.2399 57.0805 38.6999C56.717 38.1599 56.717 37.4399 57.0805 36.8999L78.5173 3.60007H53.8107L28.3773 54Z" fill="black"/>
<path d="M83.6039 37.8H58.7157L81.7873 1.79993H52.7207L25.4707 55.7999H46.9073L25.4707 106.2L83.6039 37.8Z" fill="#FFDD09"/>
<path d="M59.9873 1.79993H52.7207L25.4707 55.7999H32.7373L59.9873 1.79993Z" fill="white"/>
<path d="M74.5207 37.8L30.9207 89.1L23.6541 106.2L81.7873 37.8H74.5207Z" fill="#FD9808"/>
<path d="M25.4707 108C25.1073 108 24.7441 108 24.5623 107.82C23.8357 107.28 23.4723 106.38 23.8357 105.66L44.1823 57.6001H25.4707C24.9257 57.6001 24.1991 57.24 23.8357 56.7C23.4723 56.16 23.4723 55.4401 23.8357 54.9001L51.0857 0.90007C51.4491 0.36007 51.9941 0 52.7207 0H81.7873C82.5138 0 83.0589 0.36007 83.4223 0.90007C83.7857 1.44007 83.7857 2.16 83.4223 2.7L62.1673 36.0001H83.6039C84.3304 36.0001 84.8754 36.3601 85.2389 37.0801C85.6023 37.8 85.4204 38.5201 85.0573 39.0601L26.9239 107.46C26.5607 107.82 26.0157 108 25.4707 108ZM28.3773 54H46.9073C47.4523 54 47.9973 54.3601 48.3607 54.7199C48.7241 55.2599 48.7241 55.7999 48.5423 56.3399L31.8289 95.9399L79.7889 39.5999H58.7155C57.9889 39.5999 57.4439 39.2399 57.0805 38.6999C56.717 38.1599 56.717 37.4399 57.0805 36.8999L78.5173 3.60007H53.8107L28.3773 54Z" fill="black"/>
</g>
<defs>
<clipPath id="clip0_3_2">
<rect width="109" height="108" fill="white"/>
</clipPath>
</defs>
</svg>
