<svg width="512" height="512" viewBox="0 0 512 512" fill="none" xmlns="http://www.w3.org/2000/svg">
<g clip-path="url(#clip0_3_2)">
<path d="M324.393 210.271H310.264V166.436C310.264 136.006 285.509 111.252 255.081 111.252C224.652 111.252 199.896 136.006 199.896 166.436V210.271H187.608C186.63 210.271 185.661 210.463 184.757 210.838C183.853 211.212 183.031 211.761 182.339 212.453C181.647 213.145 181.099 213.966 180.724 214.87C180.35 215.774 180.157 216.743 180.157 217.721V339.251C180.157 340.229 180.35 341.198 180.724 342.102C181.099 343.006 181.647 343.827 182.339 344.519C183.031 345.211 183.853 345.76 184.757 346.134C185.661 346.509 186.63 346.701 187.608 346.701H324.392C326.368 346.701 328.262 345.916 329.659 344.519C331.056 343.121 331.841 341.227 331.841 339.251V217.721C331.841 216.743 331.649 215.774 331.275 214.87C330.9 213.966 330.352 213.145 329.66 212.453C328.969 211.761 328.147 211.213 327.244 210.838C326.34 210.464 325.371 210.271 324.393 210.271ZM272.689 309.623H236.893L243.791 275.694C239.595 272.42 236.893 267.316 236.893 261.582C236.893 251.697 244.906 243.684 254.791 243.684C264.676 243.684 272.689 251.698 272.689 261.582C272.689 267.316 269.988 272.42 265.791 275.694L272.689 309.623ZM287.271 210.271H222.89V166.436C222.89 148.685 237.331 134.245 255.081 134.245C272.831 134.245 287.27 148.685 287.27 166.436V210.271H287.271ZM256 37.241L473.215 82.035C473.215 425.783 256 474.596 256 474.596C256 474.596 38.786 425.783 38.786 82.035L256 37.241ZM256 0L0 52.79C0 473.98 256 512 256 512C256 512 512 476.705 512 52.79L256 0ZM256 69.869L437.193 107.236C437.193 393.969 256 434.693 256 434.693C256 434.693 74.807 393.969 74.807 107.236L256 69.869ZM256 62.422L254.334 62.769L67.05 101.388C67.05 395.774 252.248 441.326 254.189 441.768C254.189 441.768 444.951 413.053 444.951 101.388L256 62.422Z" fill="#2596BE"/>
</g>
<defs>
<clipPath id="clip0_3_2">
<rect width="512" height="512" fill="white"/>
</clipPath>
</defs>
</svg>
