<svg width="512" height="512" viewBox="0 0 512 512" fill="none" xmlns="http://www.w3.org/2000/svg">
<g clip-path="url(#clip0_3_2)">
<path d="M281.212 321.219L272.988 280.787C277.418 276.137 279.9 269.996 279.9 263.456C279.9 249.561 268.591 238.257 254.692 238.257C240.793 238.257 229.485 249.561 229.485 263.456C229.485 269.997 231.967 276.137 236.398 280.787L228.174 321.219H281.212ZM254.692 249.978C262.127 249.978 268.174 256.024 268.174 263.456C268.174 267.633 266.569 272.377 260.112 276.314L266.861 309.498H242.522L249.272 276.312C242.726 271.945 241.209 267.632 241.209 263.456C241.211 256.024 247.259 249.978 254.692 249.978ZM189.502 160.66V202.159H182.084C174.411 202.159 168.168 208.399 168.168 216.07V347.369C168.168 355.039 174.411 361.279 182.084 361.279H329.916C337.59 361.279 343.832 355.039 343.832 347.369V216.07C343.832 208.399 337.59 202.159 329.916 202.159H320.51V160.66C320.51 124.553 291.125 95.177 255.007 95.177C218.888 95.177 189.502 124.553 189.502 160.66ZM329.916 213.879C331.124 213.879 332.107 214.862 332.107 216.07V347.369C332.106 347.95 331.875 348.506 331.464 348.916C331.053 349.327 330.497 349.557 329.916 349.558H182.084C181.503 349.557 180.947 349.327 180.536 348.916C180.125 348.506 179.894 347.95 179.893 347.369V216.07C179.893 214.862 180.876 213.879 182.084 213.879H329.916ZM226.078 202.159V160.66C226.078 144.714 239.056 131.741 255.007 131.741C270.958 131.741 283.936 144.714 283.936 160.66V202.159H226.078ZM308.785 160.66V202.159H295.66V160.66C295.66 138.251 277.423 120.021 255.007 120.021C232.59 120.021 214.353 138.251 214.353 160.66V202.159H201.228V160.66C201.228 131.016 225.353 106.898 255.008 106.898C284.66 106.898 308.785 131.016 308.785 160.66ZM257.184 0.244L256 0L0 52.771C0 475.553 255.969 512 255.969 512C255.969 512 512.098 479.059 512 52.771L257.184 0.244ZM377.579 432.307C320.95 487.28 263.57 498.827 256.024 500.139C248.49 498.767 191.63 486.846 135.015 431.883C79.196 377.695 12.739 269.676 11.736 62.32L256 11.968L500.264 62.32C499.266 270.488 433.129 378.381 377.579 432.307ZM474.103 81.336L256 36.375L37.897 81.336C37.897 432.172 256 475.553 256 475.553C256 475.553 477.151 427.614 474.103 81.336ZM255.994 463.498C115.625 417.848 50.683 259.303 49.638 90.884L256 48.343L462.362 90.884C461.323 258.85 404.194 408.73 255.994 463.498Z" fill="black"/>
</g>
<defs>
<clipPath id="clip0_3_2">
<rect width="512" height="512" fill="white"/>
</clipPath>
</defs>
</svg>
